<mxfile host="Electron" modified="2024-03-07T11:29:37.980Z" agent="Mozilla/5.0 (Windows NT 10.0; Win64; x64) AppleWebKit/537.36 (KHTML, like Gecko) draw.io/23.1.5 Chrome/120.0.6099.109 Electron/28.1.0 Safari/537.36" etag="3OvWFS6yGebeVN_qFBa0" version="23.1.5" type="device">
  <diagram name="Page-1" id="JUYtyfSk5GmIbAjSt37h">
    <mxGraphModel dx="1049" dy="638" grid="1" gridSize="10" guides="1" tooltips="1" connect="1" arrows="1" fold="1" page="1" pageScale="1" pageWidth="850" pageHeight="1100" math="0" shadow="0">
      <root>
        <mxCell id="0" />
        <mxCell id="1" parent="0" />
        <mxCell id="C1QJbopBD9mGv5tf6yNd-1" value="Q0" style="ellipse;whiteSpace=wrap;html=1;" parent="1" vertex="1">
          <mxGeometry x="120" y="200" width="120" height="80" as="geometry" />
        </mxCell>
        <mxCell id="C1QJbopBD9mGv5tf6yNd-2" value="Q1" style="ellipse;whiteSpace=wrap;html=1;" parent="1" vertex="1">
          <mxGeometry x="320" y="200" width="120" height="80" as="geometry" />
        </mxCell>
        <mxCell id="C1QJbopBD9mGv5tf6yNd-3" value="Q2" style="ellipse;whiteSpace=wrap;html=1;" parent="1" vertex="1">
          <mxGeometry x="520" y="200" width="120" height="80" as="geometry" />
        </mxCell>
        <mxCell id="C1QJbopBD9mGv5tf6yNd-4" value="Q3" style="ellipse;whiteSpace=wrap;html=1;" parent="1" vertex="1">
          <mxGeometry x="720" y="200" width="120" height="80" as="geometry" />
        </mxCell>
        <mxCell id="C1QJbopBD9mGv5tf6yNd-5" value="" style="endArrow=classic;html=1;rounded=0;exitX=0;exitY=0;exitDx=0;exitDy=0;entryX=1;entryY=0;entryDx=0;entryDy=0;curved=1;" parent="1" source="C1QJbopBD9mGv5tf6yNd-1" target="C1QJbopBD9mGv5tf6yNd-1" edge="1">
          <mxGeometry width="50" height="50" relative="1" as="geometry">
            <mxPoint x="140" y="180" as="sourcePoint" />
            <mxPoint x="190" y="130" as="targetPoint" />
            <Array as="points">
              <mxPoint x="180" y="120" />
            </Array>
          </mxGeometry>
        </mxCell>
        <mxCell id="C1QJbopBD9mGv5tf6yNd-6" value="b,c,d" style="edgeLabel;html=1;align=center;verticalAlign=middle;resizable=0;points=[];" parent="C1QJbopBD9mGv5tf6yNd-5" vertex="1" connectable="0">
          <mxGeometry x="-0.4074" y="-18" relative="1" as="geometry">
            <mxPoint as="offset" />
          </mxGeometry>
        </mxCell>
        <mxCell id="C1QJbopBD9mGv5tf6yNd-7" value="" style="endArrow=classic;html=1;rounded=0;exitX=0;exitY=0;exitDx=0;exitDy=0;entryX=1;entryY=0;entryDx=0;entryDy=0;curved=1;" parent="1" source="C1QJbopBD9mGv5tf6yNd-2" target="C1QJbopBD9mGv5tf6yNd-2" edge="1">
          <mxGeometry width="50" height="50" relative="1" as="geometry">
            <mxPoint x="270" y="190" as="sourcePoint" />
            <mxPoint x="320" y="140" as="targetPoint" />
            <Array as="points">
              <mxPoint x="380" y="120" />
            </Array>
          </mxGeometry>
        </mxCell>
        <mxCell id="C1QJbopBD9mGv5tf6yNd-8" value="a,c,d" style="edgeLabel;html=1;align=center;verticalAlign=middle;resizable=0;points=[];" parent="C1QJbopBD9mGv5tf6yNd-7" vertex="1" connectable="0">
          <mxGeometry x="-0.4074" y="-18" relative="1" as="geometry">
            <mxPoint as="offset" />
          </mxGeometry>
        </mxCell>
        <mxCell id="C1QJbopBD9mGv5tf6yNd-9" value="" style="endArrow=classic;html=1;rounded=0;exitX=0;exitY=0;exitDx=0;exitDy=0;entryX=1;entryY=0;entryDx=0;entryDy=0;curved=1;" parent="1" source="C1QJbopBD9mGv5tf6yNd-3" target="C1QJbopBD9mGv5tf6yNd-3" edge="1">
          <mxGeometry width="50" height="50" relative="1" as="geometry">
            <mxPoint x="550" y="160" as="sourcePoint" />
            <mxPoint x="600" y="110" as="targetPoint" />
            <Array as="points">
              <mxPoint x="580" y="120" />
            </Array>
          </mxGeometry>
        </mxCell>
        <mxCell id="C1QJbopBD9mGv5tf6yNd-10" value="a,b,c,d" style="edgeLabel;html=1;align=center;verticalAlign=middle;resizable=0;points=[];" parent="C1QJbopBD9mGv5tf6yNd-9" vertex="1" connectable="0">
          <mxGeometry x="0.396" y="-15" relative="1" as="geometry">
            <mxPoint x="-3" as="offset" />
          </mxGeometry>
        </mxCell>
        <mxCell id="C1QJbopBD9mGv5tf6yNd-11" value="" style="endArrow=classic;html=1;rounded=0;exitX=0;exitY=0;exitDx=0;exitDy=0;entryX=1;entryY=0;entryDx=0;entryDy=0;curved=1;" parent="1" source="C1QJbopBD9mGv5tf6yNd-4" target="C1QJbopBD9mGv5tf6yNd-4" edge="1">
          <mxGeometry width="50" height="50" relative="1" as="geometry">
            <mxPoint x="730" y="140" as="sourcePoint" />
            <mxPoint x="780" y="90" as="targetPoint" />
            <Array as="points">
              <mxPoint x="780" y="110" />
            </Array>
          </mxGeometry>
        </mxCell>
        <mxCell id="C1QJbopBD9mGv5tf6yNd-12" value="a,b,c,d" style="edgeLabel;html=1;align=center;verticalAlign=middle;resizable=0;points=[];" parent="C1QJbopBD9mGv5tf6yNd-11" vertex="1" connectable="0">
          <mxGeometry x="-0.4045" y="-17" relative="1" as="geometry">
            <mxPoint as="offset" />
          </mxGeometry>
        </mxCell>
        <mxCell id="C1QJbopBD9mGv5tf6yNd-14" value="" style="endArrow=classic;html=1;rounded=0;exitX=1;exitY=0.5;exitDx=0;exitDy=0;entryX=0;entryY=0.5;entryDx=0;entryDy=0;" parent="1" source="C1QJbopBD9mGv5tf6yNd-1" target="C1QJbopBD9mGv5tf6yNd-2" edge="1">
          <mxGeometry width="50" height="50" relative="1" as="geometry">
            <mxPoint x="300" y="400" as="sourcePoint" />
            <mxPoint x="350" y="350" as="targetPoint" />
          </mxGeometry>
        </mxCell>
        <mxCell id="C1QJbopBD9mGv5tf6yNd-15" value="a" style="edgeLabel;html=1;align=center;verticalAlign=middle;resizable=0;points=[];" parent="C1QJbopBD9mGv5tf6yNd-14" vertex="1" connectable="0">
          <mxGeometry x="-0.03" relative="1" as="geometry">
            <mxPoint as="offset" />
          </mxGeometry>
        </mxCell>
        <mxCell id="C1QJbopBD9mGv5tf6yNd-16" value="" style="endArrow=classic;html=1;rounded=0;exitX=1;exitY=0.5;exitDx=0;exitDy=0;entryX=0;entryY=0.5;entryDx=0;entryDy=0;" parent="1" source="C1QJbopBD9mGv5tf6yNd-2" target="C1QJbopBD9mGv5tf6yNd-3" edge="1">
          <mxGeometry width="50" height="50" relative="1" as="geometry">
            <mxPoint x="540" y="400" as="sourcePoint" />
            <mxPoint x="590" y="350" as="targetPoint" />
          </mxGeometry>
        </mxCell>
        <mxCell id="C1QJbopBD9mGv5tf6yNd-17" value="b" style="edgeLabel;html=1;align=center;verticalAlign=middle;resizable=0;points=[];" parent="C1QJbopBD9mGv5tf6yNd-16" vertex="1" connectable="0">
          <mxGeometry x="-0.03" y="-2" relative="1" as="geometry">
            <mxPoint y="-2" as="offset" />
          </mxGeometry>
        </mxCell>
        <mxCell id="C1QJbopBD9mGv5tf6yNd-18" value="" style="endArrow=classic;html=1;rounded=0;entryX=0;entryY=0.5;entryDx=0;entryDy=0;" parent="1" target="C1QJbopBD9mGv5tf6yNd-1" edge="1">
          <mxGeometry width="50" height="50" relative="1" as="geometry">
            <mxPoint x="40" y="240" as="sourcePoint" />
            <mxPoint x="100" y="230" as="targetPoint" />
          </mxGeometry>
        </mxCell>
        <mxCell id="C1QJbopBD9mGv5tf6yNd-19" value="" style="ellipse;whiteSpace=wrap;html=1;fillColor=none;aspect=fixed;" parent="1" vertex="1">
          <mxGeometry x="727.5" y="205" width="105" height="70" as="geometry" />
        </mxCell>
        <mxCell id="C1QJbopBD9mGv5tf6yNd-20" value="" style="shape=table;startSize=0;container=1;collapsible=0;childLayout=tableLayout;fontSize=16;" parent="1" vertex="1">
          <mxGeometry x="40" y="360" width="480" height="280" as="geometry" />
        </mxCell>
        <mxCell id="C1QJbopBD9mGv5tf6yNd-21" value="" style="shape=tableRow;horizontal=0;startSize=0;swimlaneHead=0;swimlaneBody=0;strokeColor=inherit;top=0;left=0;bottom=0;right=0;collapsible=0;dropTarget=0;fillColor=none;points=[[0,0.5],[1,0.5]];portConstraint=eastwest;fontSize=16;" parent="C1QJbopBD9mGv5tf6yNd-20" vertex="1">
          <mxGeometry width="480" height="47" as="geometry" />
        </mxCell>
        <mxCell id="C1QJbopBD9mGv5tf6yNd-22" value="States/Input" style="shape=partialRectangle;html=1;whiteSpace=wrap;connectable=0;strokeColor=inherit;overflow=hidden;fillColor=none;top=0;left=0;bottom=0;right=0;pointerEvents=1;fontSize=16;rowspan=2;colspan=1;" parent="C1QJbopBD9mGv5tf6yNd-21" vertex="1">
          <mxGeometry width="96" height="94" as="geometry">
            <mxRectangle width="96" height="47" as="alternateBounds" />
          </mxGeometry>
        </mxCell>
        <mxCell id="C1QJbopBD9mGv5tf6yNd-23" value="Input" style="shape=partialRectangle;html=1;whiteSpace=wrap;connectable=0;strokeColor=inherit;overflow=hidden;fillColor=none;top=0;left=0;bottom=0;right=0;pointerEvents=1;fontSize=16;rowspan=1;colspan=4;" parent="C1QJbopBD9mGv5tf6yNd-21" vertex="1">
          <mxGeometry x="96" width="384" height="47" as="geometry">
            <mxRectangle width="96" height="47" as="alternateBounds" />
          </mxGeometry>
        </mxCell>
        <mxCell id="C1QJbopBD9mGv5tf6yNd-24" value="" style="shape=partialRectangle;html=1;whiteSpace=wrap;connectable=0;strokeColor=inherit;overflow=hidden;fillColor=none;top=0;left=0;bottom=0;right=0;pointerEvents=1;fontSize=16;" parent="C1QJbopBD9mGv5tf6yNd-21" vertex="1" visible="0">
          <mxGeometry x="192" width="96" height="47" as="geometry">
            <mxRectangle width="96" height="47" as="alternateBounds" />
          </mxGeometry>
        </mxCell>
        <mxCell id="C1QJbopBD9mGv5tf6yNd-39" style="shape=partialRectangle;html=1;whiteSpace=wrap;connectable=0;strokeColor=inherit;overflow=hidden;fillColor=none;top=0;left=0;bottom=0;right=0;pointerEvents=1;fontSize=16;" parent="C1QJbopBD9mGv5tf6yNd-21" vertex="1" visible="0">
          <mxGeometry x="288" width="96" height="47" as="geometry">
            <mxRectangle width="96" height="47" as="alternateBounds" />
          </mxGeometry>
        </mxCell>
        <mxCell id="C1QJbopBD9mGv5tf6yNd-42" style="shape=partialRectangle;html=1;whiteSpace=wrap;connectable=0;strokeColor=inherit;overflow=hidden;fillColor=none;top=0;left=0;bottom=0;right=0;pointerEvents=1;fontSize=16;" parent="C1QJbopBD9mGv5tf6yNd-21" vertex="1" visible="0">
          <mxGeometry x="384" width="96" height="47" as="geometry">
            <mxRectangle width="96" height="47" as="alternateBounds" />
          </mxGeometry>
        </mxCell>
        <mxCell id="C1QJbopBD9mGv5tf6yNd-25" value="" style="shape=tableRow;horizontal=0;startSize=0;swimlaneHead=0;swimlaneBody=0;strokeColor=inherit;top=0;left=0;bottom=0;right=0;collapsible=0;dropTarget=0;fillColor=none;points=[[0,0.5],[1,0.5]];portConstraint=eastwest;fontSize=16;" parent="C1QJbopBD9mGv5tf6yNd-20" vertex="1">
          <mxGeometry y="47" width="480" height="47" as="geometry" />
        </mxCell>
        <mxCell id="C1QJbopBD9mGv5tf6yNd-26" value="" style="shape=partialRectangle;html=1;whiteSpace=wrap;connectable=0;strokeColor=inherit;overflow=hidden;fillColor=none;top=0;left=0;bottom=0;right=0;pointerEvents=1;fontSize=16;" parent="C1QJbopBD9mGv5tf6yNd-25" vertex="1" visible="0">
          <mxGeometry width="96" height="47" as="geometry">
            <mxRectangle width="96" height="47" as="alternateBounds" />
          </mxGeometry>
        </mxCell>
        <mxCell id="C1QJbopBD9mGv5tf6yNd-27" value="a" style="shape=partialRectangle;html=1;whiteSpace=wrap;connectable=0;strokeColor=inherit;overflow=hidden;fillColor=none;top=0;left=0;bottom=0;right=0;pointerEvents=1;fontSize=16;" parent="C1QJbopBD9mGv5tf6yNd-25" vertex="1">
          <mxGeometry x="96" width="96" height="47" as="geometry">
            <mxRectangle width="96" height="47" as="alternateBounds" />
          </mxGeometry>
        </mxCell>
        <mxCell id="C1QJbopBD9mGv5tf6yNd-28" value="b" style="shape=partialRectangle;html=1;whiteSpace=wrap;connectable=0;strokeColor=inherit;overflow=hidden;fillColor=none;top=0;left=0;bottom=0;right=0;pointerEvents=1;fontSize=16;" parent="C1QJbopBD9mGv5tf6yNd-25" vertex="1">
          <mxGeometry x="192" width="96" height="47" as="geometry">
            <mxRectangle width="96" height="47" as="alternateBounds" />
          </mxGeometry>
        </mxCell>
        <mxCell id="C1QJbopBD9mGv5tf6yNd-40" value="c" style="shape=partialRectangle;html=1;whiteSpace=wrap;connectable=0;strokeColor=inherit;overflow=hidden;fillColor=none;top=0;left=0;bottom=0;right=0;pointerEvents=1;fontSize=16;" parent="C1QJbopBD9mGv5tf6yNd-25" vertex="1">
          <mxGeometry x="288" width="96" height="47" as="geometry">
            <mxRectangle width="96" height="47" as="alternateBounds" />
          </mxGeometry>
        </mxCell>
        <mxCell id="C1QJbopBD9mGv5tf6yNd-43" value="d" style="shape=partialRectangle;html=1;whiteSpace=wrap;connectable=0;strokeColor=inherit;overflow=hidden;fillColor=none;top=0;left=0;bottom=0;right=0;pointerEvents=1;fontSize=16;" parent="C1QJbopBD9mGv5tf6yNd-25" vertex="1">
          <mxGeometry x="384" width="96" height="47" as="geometry">
            <mxRectangle width="96" height="47" as="alternateBounds" />
          </mxGeometry>
        </mxCell>
        <mxCell id="C1QJbopBD9mGv5tf6yNd-29" value="" style="shape=tableRow;horizontal=0;startSize=0;swimlaneHead=0;swimlaneBody=0;strokeColor=inherit;top=0;left=0;bottom=0;right=0;collapsible=0;dropTarget=0;fillColor=none;points=[[0,0.5],[1,0.5]];portConstraint=eastwest;fontSize=16;" parent="C1QJbopBD9mGv5tf6yNd-20" vertex="1">
          <mxGeometry y="94" width="480" height="46" as="geometry" />
        </mxCell>
        <mxCell id="C1QJbopBD9mGv5tf6yNd-30" value="Q0" style="shape=partialRectangle;html=1;whiteSpace=wrap;connectable=0;strokeColor=inherit;overflow=hidden;fillColor=none;top=0;left=0;bottom=0;right=0;pointerEvents=1;fontSize=16;" parent="C1QJbopBD9mGv5tf6yNd-29" vertex="1">
          <mxGeometry width="96" height="46" as="geometry">
            <mxRectangle width="96" height="46" as="alternateBounds" />
          </mxGeometry>
        </mxCell>
        <mxCell id="C1QJbopBD9mGv5tf6yNd-31" value="Q1" style="shape=partialRectangle;html=1;whiteSpace=wrap;connectable=0;strokeColor=inherit;overflow=hidden;fillColor=none;top=0;left=0;bottom=0;right=0;pointerEvents=1;fontSize=16;" parent="C1QJbopBD9mGv5tf6yNd-29" vertex="1">
          <mxGeometry x="96" width="96" height="46" as="geometry">
            <mxRectangle width="96" height="46" as="alternateBounds" />
          </mxGeometry>
        </mxCell>
        <mxCell id="C1QJbopBD9mGv5tf6yNd-32" value="Q0" style="shape=partialRectangle;html=1;whiteSpace=wrap;connectable=0;strokeColor=inherit;overflow=hidden;fillColor=none;top=0;left=0;bottom=0;right=0;pointerEvents=1;fontSize=16;" parent="C1QJbopBD9mGv5tf6yNd-29" vertex="1">
          <mxGeometry x="192" width="96" height="46" as="geometry">
            <mxRectangle width="96" height="46" as="alternateBounds" />
          </mxGeometry>
        </mxCell>
        <mxCell id="C1QJbopBD9mGv5tf6yNd-41" value="Q0" style="shape=partialRectangle;html=1;whiteSpace=wrap;connectable=0;strokeColor=inherit;overflow=hidden;fillColor=none;top=0;left=0;bottom=0;right=0;pointerEvents=1;fontSize=16;" parent="C1QJbopBD9mGv5tf6yNd-29" vertex="1">
          <mxGeometry x="288" width="96" height="46" as="geometry">
            <mxRectangle width="96" height="46" as="alternateBounds" />
          </mxGeometry>
        </mxCell>
        <mxCell id="C1QJbopBD9mGv5tf6yNd-44" value="Q0" style="shape=partialRectangle;html=1;whiteSpace=wrap;connectable=0;strokeColor=inherit;overflow=hidden;fillColor=none;top=0;left=0;bottom=0;right=0;pointerEvents=1;fontSize=16;" parent="C1QJbopBD9mGv5tf6yNd-29" vertex="1">
          <mxGeometry x="384" width="96" height="46" as="geometry">
            <mxRectangle width="96" height="46" as="alternateBounds" />
          </mxGeometry>
        </mxCell>
        <mxCell id="C1QJbopBD9mGv5tf6yNd-45" style="shape=tableRow;horizontal=0;startSize=0;swimlaneHead=0;swimlaneBody=0;strokeColor=inherit;top=0;left=0;bottom=0;right=0;collapsible=0;dropTarget=0;fillColor=none;points=[[0,0.5],[1,0.5]];portConstraint=eastwest;fontSize=16;" parent="C1QJbopBD9mGv5tf6yNd-20" vertex="1">
          <mxGeometry y="140" width="480" height="47" as="geometry" />
        </mxCell>
        <mxCell id="C1QJbopBD9mGv5tf6yNd-46" value="Q1" style="shape=partialRectangle;html=1;whiteSpace=wrap;connectable=0;strokeColor=inherit;overflow=hidden;fillColor=none;top=0;left=0;bottom=0;right=0;pointerEvents=1;fontSize=16;" parent="C1QJbopBD9mGv5tf6yNd-45" vertex="1">
          <mxGeometry width="96" height="47" as="geometry">
            <mxRectangle width="96" height="47" as="alternateBounds" />
          </mxGeometry>
        </mxCell>
        <mxCell id="C1QJbopBD9mGv5tf6yNd-47" value="Q1" style="shape=partialRectangle;html=1;whiteSpace=wrap;connectable=0;strokeColor=inherit;overflow=hidden;fillColor=none;top=0;left=0;bottom=0;right=0;pointerEvents=1;fontSize=16;" parent="C1QJbopBD9mGv5tf6yNd-45" vertex="1">
          <mxGeometry x="96" width="96" height="47" as="geometry">
            <mxRectangle width="96" height="47" as="alternateBounds" />
          </mxGeometry>
        </mxCell>
        <mxCell id="C1QJbopBD9mGv5tf6yNd-48" value="Q2" style="shape=partialRectangle;html=1;whiteSpace=wrap;connectable=0;strokeColor=inherit;overflow=hidden;fillColor=none;top=0;left=0;bottom=0;right=0;pointerEvents=1;fontSize=16;" parent="C1QJbopBD9mGv5tf6yNd-45" vertex="1">
          <mxGeometry x="192" width="96" height="47" as="geometry">
            <mxRectangle width="96" height="47" as="alternateBounds" />
          </mxGeometry>
        </mxCell>
        <mxCell id="C1QJbopBD9mGv5tf6yNd-49" value="Q1" style="shape=partialRectangle;html=1;whiteSpace=wrap;connectable=0;strokeColor=inherit;overflow=hidden;fillColor=none;top=0;left=0;bottom=0;right=0;pointerEvents=1;fontSize=16;" parent="C1QJbopBD9mGv5tf6yNd-45" vertex="1">
          <mxGeometry x="288" width="96" height="47" as="geometry">
            <mxRectangle width="96" height="47" as="alternateBounds" />
          </mxGeometry>
        </mxCell>
        <mxCell id="C1QJbopBD9mGv5tf6yNd-50" value="Q1" style="shape=partialRectangle;html=1;whiteSpace=wrap;connectable=0;strokeColor=inherit;overflow=hidden;fillColor=none;top=0;left=0;bottom=0;right=0;pointerEvents=1;fontSize=16;" parent="C1QJbopBD9mGv5tf6yNd-45" vertex="1">
          <mxGeometry x="384" width="96" height="47" as="geometry">
            <mxRectangle width="96" height="47" as="alternateBounds" />
          </mxGeometry>
        </mxCell>
        <mxCell id="C1QJbopBD9mGv5tf6yNd-51" style="shape=tableRow;horizontal=0;startSize=0;swimlaneHead=0;swimlaneBody=0;strokeColor=inherit;top=0;left=0;bottom=0;right=0;collapsible=0;dropTarget=0;fillColor=none;points=[[0,0.5],[1,0.5]];portConstraint=eastwest;fontSize=16;" parent="C1QJbopBD9mGv5tf6yNd-20" vertex="1">
          <mxGeometry y="187" width="480" height="46" as="geometry" />
        </mxCell>
        <mxCell id="C1QJbopBD9mGv5tf6yNd-52" value="Q2" style="shape=partialRectangle;html=1;whiteSpace=wrap;connectable=0;strokeColor=inherit;overflow=hidden;fillColor=none;top=0;left=0;bottom=0;right=0;pointerEvents=1;fontSize=16;" parent="C1QJbopBD9mGv5tf6yNd-51" vertex="1">
          <mxGeometry width="96" height="46" as="geometry">
            <mxRectangle width="96" height="46" as="alternateBounds" />
          </mxGeometry>
        </mxCell>
        <mxCell id="C1QJbopBD9mGv5tf6yNd-53" value="Q2" style="shape=partialRectangle;html=1;whiteSpace=wrap;connectable=0;strokeColor=inherit;overflow=hidden;fillColor=none;top=0;left=0;bottom=0;right=0;pointerEvents=1;fontSize=16;" parent="C1QJbopBD9mGv5tf6yNd-51" vertex="1">
          <mxGeometry x="96" width="96" height="46" as="geometry">
            <mxRectangle width="96" height="46" as="alternateBounds" />
          </mxGeometry>
        </mxCell>
        <mxCell id="C1QJbopBD9mGv5tf6yNd-54" value="Q2" style="shape=partialRectangle;html=1;whiteSpace=wrap;connectable=0;strokeColor=inherit;overflow=hidden;fillColor=none;top=0;left=0;bottom=0;right=0;pointerEvents=1;fontSize=16;" parent="C1QJbopBD9mGv5tf6yNd-51" vertex="1">
          <mxGeometry x="192" width="96" height="46" as="geometry">
            <mxRectangle width="96" height="46" as="alternateBounds" />
          </mxGeometry>
        </mxCell>
        <mxCell id="C1QJbopBD9mGv5tf6yNd-55" value="Q2" style="shape=partialRectangle;html=1;whiteSpace=wrap;connectable=0;strokeColor=inherit;overflow=hidden;fillColor=none;top=0;left=0;bottom=0;right=0;pointerEvents=1;fontSize=16;" parent="C1QJbopBD9mGv5tf6yNd-51" vertex="1">
          <mxGeometry x="288" width="96" height="46" as="geometry">
            <mxRectangle width="96" height="46" as="alternateBounds" />
          </mxGeometry>
        </mxCell>
        <mxCell id="C1QJbopBD9mGv5tf6yNd-56" value="Q2" style="shape=partialRectangle;html=1;whiteSpace=wrap;connectable=0;strokeColor=inherit;overflow=hidden;fillColor=none;top=0;left=0;bottom=0;right=0;pointerEvents=1;fontSize=16;" parent="C1QJbopBD9mGv5tf6yNd-51" vertex="1">
          <mxGeometry x="384" width="96" height="46" as="geometry">
            <mxRectangle width="96" height="46" as="alternateBounds" />
          </mxGeometry>
        </mxCell>
        <mxCell id="C1QJbopBD9mGv5tf6yNd-57" style="shape=tableRow;horizontal=0;startSize=0;swimlaneHead=0;swimlaneBody=0;strokeColor=inherit;top=0;left=0;bottom=0;right=0;collapsible=0;dropTarget=0;fillColor=none;points=[[0,0.5],[1,0.5]];portConstraint=eastwest;fontSize=16;" parent="C1QJbopBD9mGv5tf6yNd-20" vertex="1">
          <mxGeometry y="233" width="480" height="47" as="geometry" />
        </mxCell>
        <mxCell id="C1QJbopBD9mGv5tf6yNd-58" value="Q3" style="shape=partialRectangle;html=1;whiteSpace=wrap;connectable=0;strokeColor=inherit;overflow=hidden;fillColor=none;top=0;left=0;bottom=0;right=0;pointerEvents=1;fontSize=16;" parent="C1QJbopBD9mGv5tf6yNd-57" vertex="1">
          <mxGeometry width="96" height="47" as="geometry">
            <mxRectangle width="96" height="47" as="alternateBounds" />
          </mxGeometry>
        </mxCell>
        <mxCell id="C1QJbopBD9mGv5tf6yNd-59" value="Q3" style="shape=partialRectangle;html=1;whiteSpace=wrap;connectable=0;strokeColor=inherit;overflow=hidden;fillColor=none;top=0;left=0;bottom=0;right=0;pointerEvents=1;fontSize=16;" parent="C1QJbopBD9mGv5tf6yNd-57" vertex="1">
          <mxGeometry x="96" width="96" height="47" as="geometry">
            <mxRectangle width="96" height="47" as="alternateBounds" />
          </mxGeometry>
        </mxCell>
        <mxCell id="C1QJbopBD9mGv5tf6yNd-60" value="Q3" style="shape=partialRectangle;html=1;whiteSpace=wrap;connectable=0;strokeColor=inherit;overflow=hidden;fillColor=none;top=0;left=0;bottom=0;right=0;pointerEvents=1;fontSize=16;" parent="C1QJbopBD9mGv5tf6yNd-57" vertex="1">
          <mxGeometry x="192" width="96" height="47" as="geometry">
            <mxRectangle width="96" height="47" as="alternateBounds" />
          </mxGeometry>
        </mxCell>
        <mxCell id="C1QJbopBD9mGv5tf6yNd-61" value="Q3" style="shape=partialRectangle;html=1;whiteSpace=wrap;connectable=0;strokeColor=inherit;overflow=hidden;fillColor=none;top=0;left=0;bottom=0;right=0;pointerEvents=1;fontSize=16;" parent="C1QJbopBD9mGv5tf6yNd-57" vertex="1">
          <mxGeometry x="288" width="96" height="47" as="geometry">
            <mxRectangle width="96" height="47" as="alternateBounds" />
          </mxGeometry>
        </mxCell>
        <mxCell id="C1QJbopBD9mGv5tf6yNd-62" value="Q3" style="shape=partialRectangle;html=1;whiteSpace=wrap;connectable=0;strokeColor=inherit;overflow=hidden;fillColor=none;top=0;left=0;bottom=0;right=0;pointerEvents=1;fontSize=16;" parent="C1QJbopBD9mGv5tf6yNd-57" vertex="1">
          <mxGeometry x="384" width="96" height="47" as="geometry">
            <mxRectangle width="96" height="47" as="alternateBounds" />
          </mxGeometry>
        </mxCell>
      </root>
    </mxGraphModel>
  </diagram>
</mxfile>
